<?xml version="1.0" encoding="iso-8859-1"?>
<!-- Generator: Adobe Illustrator 19.0.0, SVG Export Plug-In . SVG Version: 6.00 Build 0)  -->
<svg xmlns="http://www.w3.org/2000/svg" xmlns:xlink="http://www.w3.org/1999/xlink" version="1.1" id="Capa_1" x="0px" y="0px" viewBox="0 0 489.602 489.602" style="enable-background:new 0 0 489.602 489.602;" xml:space="preserve" width="512px" height="512px">
<g>
	<g>
		<g>
			<path d="M313.768,438.302h-14l0,0v-12.8h-110.4v12.8l0,0h-14c-5.4,0-9.7,4.3-9.7,9.7c0,5.4,4.3,9.7,9.7,9.7h14l0,0v21.4h26.4     c1.9,5.8,14,10.5,28.8,10.5s26.8-4.7,28.8-10.5h26.4v-21.4l0,0h14c5.4,0,9.7-4.3,9.7-9.7S319.168,438.302,313.768,438.302z" fill="#0078F0"/>
			<path d="M244.168,0.002c-77.8,0.4-142.3,62.6-145.5,140.4c-1.6,37.3,11.3,71.9,33.4,98.4c38.1,46.3,57.6,105,57.6,164.5v1.9h45.5     v-236.8l-24.9,18.3c-3.5,2.6-8.3,2.5-11.7-0.1l-40-30.3c-4.3-3.1-5.1-9.3-1.9-14c3.1-4.3,9.3-5.1,14-1.9l34.2,25.7l31.1-23.7     c1.6-3.5,5.1-5.8,8.9-5.8c3.9,0,7.4,2.3,8.9,5.8l31.1,23.7l34.2-25.7c4.3-3.1,10.5-2.3,14,1.9c3.1,4.3,2.3,10.5-1.9,14     l-40.5,30.4c-3.4,2.5-8,2.5-11.4,0l-24.7-18.4v237.6h45.5v-4.7c0-59.9,21.8-117.1,59.1-164.1c19.8-24.9,31.9-56.4,31.9-91     C390.768,65.302,325.068-0.398,244.168,0.002z" fill="#0078F0"/>
		</g>
	</g>
</g>
<g>
</g>
<g>
</g>
<g>
</g>
<g>
</g>
<g>
</g>
<g>
</g>
<g>
</g>
<g>
</g>
<g>
</g>
<g>
</g>
<g>
</g>
<g>
</g>
<g>
</g>
<g>
</g>
<g>
</g>
</svg>
